PathFileType  4	(X/Y/Z) C:\Users\antoi\Documents\MyRepositories\mobilecap\ResultsAnalysis
DataRate	CameraRate	NumFrames	NumMarkers	Units	OrigDataRate	OrigDataStartFrame	OrigNumFrames
100.0	100.0	6	51	mm	100.0	1	1321
Frame#	Time	r_knee			r_shank_antsup			r_ankle			r_calc			r_5meta			r_toe			L_knee			L_shank_antsup			L_ankle			L_calc			L_5meta			L_toe			r_sh2			r_sh3			r_sh4			L_sh2			L_sh3			r_thigh1			r_thigh2			r_thigh3			r_thigh4			r_thigh5			L_thigh1			L_thigh2			L_thigh3			L_thigh4			r.ASIS			r.PSIS			L.ASIS			L.PSIS			C7			R_Shoulder			L_Shoulder			R_Sternum			L_Sternum			R_humerus			R_elbow_med			R_elbow_lat			R_forearm			R_wrist_radius			R_wrist_ulna			L_humerus			L_elbow_med			L_elbow_lat			L_forearm			L_wrist_radius			L_wrist_ulna			R_HJC			L_HJC			R_HJC_reg			L_HJC_reg			
		X1	Y1	Z1	X2	Y2	Z2	X3	Y3	Z3	X4	Y4	Z4	X5	Y5	Z5	X6	Y6	Z6	X7	Y7	Z7	X8	Y8	Z8	X9	Y9	Z9	X10	Y10	Z10	X11	Y11	Z11	X12	Y12	Z12	X13	Y13	Z13	X14	Y14	Z14	X15	Y15	Z15	X16	Y16	Z16	X17	Y17	Z17	X18	Y18	Z18	X19	Y19	Z19	X20	Y20	Z20	X21	Y21	Z21	X22	Y22	Z22	X23	Y23	Z23	X24	Y24	Z24	X25	Y25	Z25	X26	Y26	Z26	X27	Y27	Z27	X28	Y28	Z28	X29	Y29	Z29	X30	Y30	Z30	X31	Y31	Z31	X32	Y32	Z32	X33	Y33	Z33	X34	Y34	Z34	X35	Y35	Z35	X36	Y36	Z36	X37	Y37	Z37	X38	Y38	Z38	X39	Y39	Z39	X40	Y40	Z40	X41	Y41	Z41	X42	Y42	Z42	X43	Y43	Z43	X44	Y44	Z44	X45	Y45	Z45	X46	Y46	Z46	X47	Y47	Z47	X48	Y48	Z48	X49	Y49	Z49	X50	Y50	Z50	X51	Y51	Z51	

1	0.00000000	-279.94878	474.86087	-420.74513	-254.54548	418.97121	-417.57598	-282.03539	84.21810	-429.20603	-334.26547	54.59494	-473.71636	-173.57930	41.32445	-398.31092	-134.54465	58.67470	-451.01820	-221.57867	473.11379	-743.53647	-192.46189	388.66611	-745.17492	-277.00311	95.78037	-793.15465	-334.65844	53.34216	-754.59404	-176.80655	43.81858	-829.07410	-126.31104	58.92820	-774.74647	-264.97455	306.63917	-406.62218	-328.52239	427.46063	-398.56644	-346.00422	311.69569	-395.97546	-268.91470	420.09036	-781.16521	-288.43832	300.91592	-806.30990	-194.62470	718.29506	-372.42208	-205.84427	607.30629	-391.48617	-314.01940	615.52642	-411.59549	-306.88059	728.13009	-381.87514	-269.75282	590.16248	-389.76101	-163.73425	753.81650	-760.29719	-159.65093	614.22132	-749.04824	-275.08351	750.01305	-768.04473	-273.61126	613.39523	-737.80727	-133.66926	924.07362	-442.11570	-340.17432	951.74685	-529.02829	-122.47318	931.20515	-665.63913	-332.88912	954.72314	-610.35435	-303.50329	1390.98028	-550.59568	-250.50196	1364.68854	-404.80185	-234.59137	1370.02057	-686.16821	-174.52487	1348.78287	-523.02209	-172.18259	1347.64773	-555.07501	-177.43591	1300.26863	-334.98210	-82.42593	1104.32212	-299.43758	-64.85888	1149.58728	-251.55371	23.83238	1183.75559	-264.24381	162.91555	1183.23353	-301.34341	167.79008	1154.64759	-276.01605	-170.02477	1303.00038	-758.31273	-48.90528	1112.35352	-774.12484	-36.44066	1160.10098	-818.25956	66.70855	1185.77431	-794.78018	182.72639	1193.57411	-740.75525	189.46041	1158.93743	-760.79149	-214.45066	835.61130	-457.69764	-201.93245	844.50365	-664.63617	-203.98343	854.27108	-481.79075	-190.80634	859.65443	-628.88903	
2	0.01000000	-279.77196	474.91012	-420.65228	-254.45702	418.92742	-417.57818	-281.99957	84.29526	-429.15176	-334.23037	54.65716	-473.64169	-173.58140	41.30297	-398.29738	-134.51519	58.66834	-450.97500	-221.71345	473.10393	-743.49730	-192.56880	388.73781	-745.24841	-277.02518	95.80269	-793.27039	-334.63772	53.34349	-754.62250	-176.80580	43.80901	-829.07641	-126.27847	59.04848	-774.84195	-264.73624	306.61158	-406.44239	-328.44059	427.29995	-398.71180	-345.95046	311.49612	-396.04238	-269.02987	420.11398	-781.09764	-288.44724	300.91472	-806.26534	-194.67460	718.28334	-372.22667	-205.86124	607.26090	-391.48859	-313.92821	615.52395	-411.42627	-306.99761	728.36179	-381.50588	-269.71864	590.28978	-389.67659	-164.09073	753.87380	-760.20167	-159.89962	614.30569	-749.05610	-275.29519	750.07972	-767.95327	-273.79532	613.40156	-737.65702	-133.94993	924.00184	-442.02462	-340.44375	951.86858	-528.83826	-122.70130	931.26970	-665.46637	-333.26907	954.73534	-610.08453	-303.23612	1391.11099	-550.41494	-250.23177	1364.74466	-404.66207	-234.33661	1370.10343	-686.00325	-174.31087	1348.85659	-522.99368	-171.86940	1347.78650	-554.69429	-177.18313	1300.52897	-334.81598	-81.98180	1104.54065	-299.12008	-64.55490	1149.88034	-251.32903	24.14400	1184.14955	-264.01629	163.29118	1183.81922	-300.94016	168.13936	1155.14537	-275.59587	-169.77764	1303.24214	-758.10283	-48.31862	1112.91320	-774.15501	-35.82260	1160.54423	-817.74257	67.29004	1186.29766	-794.35776	183.18731	1194.17677	-740.24077	189.91389	1159.38489	-760.33404	-214.74386	835.59090	-457.56857	-202.27257	844.57379	-664.50602	-204.26139	854.48762	-481.49789	-191.27384	859.67697	-628.57052	
3	0.02000000	-279.60249	474.95558	-420.57941	-254.24231	418.97971	-417.46376	-281.99946	84.30457	-429.16126	-334.24732	54.58368	-473.62743	-173.57621	41.32936	-398.31648	-134.50727	58.67409	-450.95737	-221.82823	473.11822	-743.48500	-192.64738	388.77910	-745.23612	-277.02584	95.81661	-793.31386	-334.61766	53.37233	-754.64450	-176.80571	43.80295	-829.07624	-126.27766	59.03921	-774.83911	-264.56252	306.64046	-406.33729	-328.27361	427.42179	-398.71447	-345.60162	311.41374	-395.91770	-269.11946	420.15644	-781.02080	-288.48415	300.94779	-806.24241	-194.78688	718.40208	-371.98331	-205.80867	607.36216	-391.43715	-313.93270	615.52953	-411.28436	-307.14821	728.42909	-381.25831	-269.68697	590.34595	-389.55035	-164.37812	753.91926	-760.14080	-160.11836	614.37647	-749.13061	-275.51416	750.08927	-767.79068	-273.96460	613.40454	-737.55444	-134.23401	924.03929	-441.95718	-340.72403	951.94685	-528.76090	-122.96946	931.26861	-665.26612	-333.62898	954.81229	-609.91787	-303.00270	1391.24496	-550.21020	-249.95635	1364.87343	-404.51695	-234.01960	1370.25171	-685.75574	-173.98910	1348.87772	-522.82281	-171.57286	1347.87457	-554.42710	-176.95487	1300.71123	-334.65742	-81.44788	1104.44796	-298.76027	-64.20996	1150.18256	-251.09394	24.43982	1184.50611	-263.82991	163.62075	1184.32270	-300.73362	168.53675	1155.70791	-275.24366	-169.43649	1303.49022	-757.89100	-47.73836	1113.32898	-773.83712	-35.22586	1161.09063	-817.48988	67.90833	1186.87849	-794.00289	183.72071	1194.81952	-739.78699	190.46121	1159.94990	-759.79268	-215.07028	835.64679	-457.42773	-202.59508	844.60117	-664.36618	-204.49109	854.55930	-481.34288	-191.64015	859.74931	-628.33946	
4	0.03000000	-279.44057	474.97588	-420.53080	-253.90260	419.04039	-417.29297	-282.00825	84.30307	-429.19021	-334.25886	54.48050	-473.68681	-173.56658	41.36614	-398.32610	-134.52175	58.68453	-450.97217	-221.91851	473.14119	-743.47570	-192.69643	388.79317	-745.19187	-277.01002	95.82545	-793.30725	-334.56906	53.42073	-754.62959	-176.80400	43.80377	-829.07463	-126.26914	58.96635	-774.77974	-264.44862	306.63468	-406.38497	-328.02501	427.58592	-398.56695	-345.12355	311.38305	-395.77123	-269.18867	420.19363	-780.91628	-288.51598	300.95754	-806.17986	-194.96226	718.58946	-371.73035	-205.83304	607.57804	-391.17638	-314.01021	615.48092	-411.14939	-307.31182	728.39302	-381.10894	-269.69140	590.36948	-389.39063	-164.60544	753.92902	-760.08301	-160.30901	614.42898	-749.20660	-275.82200	750.00764	-767.55403	-274.13240	613.35949	-737.41570	-134.54710	924.15188	-441.87081	-340.99788	952.03110	-528.70878	-123.27393	931.20838	-665.03006	-333.91237	954.92151	-609.80094	-302.78001	1391.37506	-549.96998	-249.67683	1365.01478	-404.35783	-233.65035	1370.48908	-685.51223	-173.64056	1348.92252	-522.57304	-171.28596	1347.92594	-554.24911	-176.68180	1300.88683	-334.46671	-81.01723	1104.51830	-298.18127	-63.82326	1150.50362	-250.84545	24.79540	1184.91818	-263.64642	163.95108	1184.76649	-300.60763	168.94391	1156.22944	-275.05782	-168.97434	1303.77737	-757.56434	-47.13348	1113.77973	-773.46474	-34.65743	1161.66881	-817.37839	68.52948	1187.50136	-793.63573	184.28998	1195.43823	-739.37419	191.10830	1160.62002	-759.30074	-215.42552	835.76640	-457.23577	-202.90570	844.58652	-664.17728	-204.76511	854.59108	-481.25006	-191.93011	859.82682	-628.14391	
5	0.04000000	-279.26234	474.96730	-420.50836	-253.49019	418.98265	-417.22632	-281.99901	84.33120	-429.19274	-334.23905	54.48039	-473.75528	-173.57729	41.36924	-398.32710	-134.53767	58.69668	-450.99308	-221.98599	473.14886	-743.44841	-192.71577	388.77761	-745.12961	-276.99913	95.83282	-793.30487	-334.52537	53.44997	-754.57841	-176.80016	43.80539	-829.07609	-126.24217	58.93317	-774.75018	-264.25526	306.56521	-406.52419	-327.67256	427.68809	-398.26625	-344.79374	311.34711	-395.77001	-269.24904	420.20626	-780.80032	-288.52027	300.92296	-806.09499	-195.16623	718.74224	-371.50150	-205.95401	607.78279	-390.78579	-314.05687	615.36804	-411.02476	-307.48926	728.36450	-381.01805	-269.70116	590.43096	-389.19984	-164.84526	753.90256	-759.92438	-160.49978	614.47760	-749.19858	-276.24961	749.88560	-767.35308	-274.31414	613.25268	-737.18160	-134.87874	924.24182	-441.76418	-341.27560	952.16029	-528.59728	-123.61350	931.13512	-664.80858	-334.09328	955.01629	-609.64216	-302.53180	1391.51139	-549.74418	-249.34756	1365.12464	-404.14536	-233.24871	1370.78617	-685.33856	-173.33968	1349.03864	-522.32757	-170.99268	1347.99631	-554.07105	-176.31544	1301.13754	-334.17777	-80.71896	1105.17929	-297.11247	-63.39214	1150.86622	-250.55558	25.24071	1185.41267	-263.38742	164.35207	1185.22857	-300.38734	169.36352	1156.69473	-274.95238	-168.46661	1304.16232	-757.18128	-46.47656	1114.38134	-773.33764	-34.05369	1162.22274	-817.19194	69.15192	1188.12901	-793.18440	184.84669	1195.97951	-738.92009	191.77373	1161.28403	-758.99054	-215.78127	835.88310	-457.01683	-203.23541	844.56229	-663.96274	-205.18695	854.68920	-481.18785	-192.17723	859.86232	-627.98860	
6	0.05000000	-278.99835	474.95176	-420.50239	-253.00514	418.84506	-417.30354	-281.99617	84.32759	-429.19776	-334.23798	54.53200	-473.77913	-173.61513	41.35797	-398.37509	-134.54405	58.71167	-450.99387	-222.03308	473.14467	-743.41532	-192.69623	388.73137	-744.99557	-276.99985	95.83628	-793.31888	-334.55518	53.44644	-754.54670	-176.79604	43.79810	-829.08263	-126.23594	58.92117	-774.74997	-263.87372	306.52972	-406.59137	-327.26765	427.89157	-397.95243	-344.55752	311.39188	-395.79803	-269.28763	420.21500	-780.72415	-288.53092	300.90442	-806.04386	-195.35960	718.88178	-371.25351	-205.96002	607.89423	-390.56334	-314.02836	615.28959	-410.94127	-307.67384	728.34345	-380.96717	-269.66179	590.48388	-389.00721	-165.16545	753.87894	-759.63232	-160.69658	614.53655	-749.12576	-276.70027	749.82376	-767.23969	-274.49981	613.15240	-736.95856	-135.19236	924.29813	-441.71445	-341.58315	952.30996	-528.44694	-124.00316	931.12034	-664.70589	-334.27078	955.13034	-609.47917	-302.23260	1391.68453	-549.55047	-248.93871	1365.29406	-403.82942	-232.84178	1371.06075	-685.14981	-173.01630	1349.16047	-522.05785	-170.67163	1348.11449	-553.85152	-175.90464	1301.43176	-333.83581	-80.26894	1105.91220	-296.11754	-62.90448	1151.28181	-250.20523	25.69720	1185.87118	-263.06612	164.80083	1185.67980	-300.17242	169.86168	1157.24045	-274.75153	-168.01118	1304.67303	-757.04539	-45.78678	1114.97360	-773.22131	-33.36189	1162.81413	-816.95384	69.81502	1188.77037	-792.76816	185.42815	1196.50696	-738.40173	192.40063	1161.88424	-758.69192	-216.11356	835.97688	-456.87687	-203.62089	844.59197	-663.82866	-205.67090	854.80029	-481.22054	-192.42876	859.90770	-627.96399	
